<?xml version="1.0" encoding="UTF-8"?>
<!DOCTYPE svg PUBLIC "-//W3C//DTD SVG 1.1//EN" "http://www.w3.org/Graphics/SVG/1.1/DTD/svg11.dtd">
<svg xmlns="http://www.w3.org/2000/svg" version="1.1" width="1060px" height="480px" style="shape-rendering:geometricPrecision; text-rendering:geometricPrecision; image-rendering:optimizeQuality; fill-rule:evenodd; clip-rule:evenodd" xmlns:xlink="http://www.w3.org/1999/xlink">
<g><path style="opacity:1" fill="#1a1818" d="M -0.5,-0.5 C 352.833,-0.5 706.167,-0.5 1059.5,-0.5C 1059.5,159.5 1059.5,319.5 1059.5,479.5C 706.167,479.5 352.833,479.5 -0.5,479.5C -0.5,319.5 -0.5,159.5 -0.5,-0.5 Z"/></g>
<g><path style="opacity:1" fill="#f8b000" d="M 734.5,0.5 C 734.5,102.5 734.5,204.5 734.5,306.5C 683.833,306.5 633.167,306.5 582.5,306.5C 582.5,292.5 582.5,278.5 582.5,264.5C 619.004,264.832 655.337,264.498 691.5,263.5C 691.5,190.167 691.5,116.833 691.5,43.5C 583.332,43.1672 475.332,43.5005 367.5,44.5C 366.787,49.3979 366.121,54.3979 365.5,59.5C 351.5,59.5 337.5,59.5 323.5,59.5C 323.5,39.8333 323.5,20.1667 323.5,0.5C 460.5,0.5 597.5,0.5 734.5,0.5 Z"/></g>
<g><path style="opacity:1" fill="#ae7c07" d="M 367.5,44.5 C 368.108,49.9443 367.442,54.9443 365.5,59.5C 366.121,54.3979 366.787,49.3979 367.5,44.5 Z"/></g>
<g><path style="opacity:1" fill="#b07d06" d="M 324.5,71.5 C 324.5,149.833 324.5,228.167 324.5,306.5C 338.167,306.5 351.833,306.5 365.5,306.5C 365.17,288.659 365.503,270.992 366.5,253.5C 366.5,271.5 366.5,289.5 366.5,307.5C 352.167,307.5 337.833,307.5 323.5,307.5C 323.167,228.665 323.501,149.998 324.5,71.5 Z"/></g>
<g><path style="opacity:1" fill="#f8b000" d="M 324.5,71.5 C 338.167,71.5 351.833,71.5 365.5,71.5C 365.167,110.839 365.5,150.172 366.5,189.5C 367.107,189.376 367.44,189.043 367.5,188.5C 398.476,149.852 429.476,111.186 460.5,72.5C 477.5,71.1667 494.5,71.1667 511.5,72.5C 483.926,106.651 456.593,140.984 429.5,175.5C 459.51,218.862 489.51,262.196 519.5,305.5C 502.008,306.497 484.341,306.83 466.5,306.5C 444.442,274.739 422.609,242.739 401,210.5C 389.287,224.708 377.787,239.041 366.5,253.5C 365.503,270.992 365.17,288.659 365.5,306.5C 351.833,306.5 338.167,306.5 324.5,306.5C 324.5,228.167 324.5,149.833 324.5,71.5 Z"/></g>
<g><path style="opacity:1" fill="#c48b07" d="M 567.5,175.5 C 566.503,155.34 566.17,135.007 566.5,114.5C 603.5,114.5 640.5,114.5 677.5,114.5C 677.5,100.5 677.5,86.5 677.5,72.5C 626.833,72.5 576.167,72.5 525.5,72.5C 525.5,150.5 525.5,228.5 525.5,306.5C 539.167,306.5 552.833,306.5 566.5,306.5C 566.169,277.329 566.502,248.329 567.5,219.5C 567.5,248.833 567.5,278.167 567.5,307.5C 553.167,307.5 538.833,307.5 524.5,307.5C 524.5,228.833 524.5,150.167 524.5,71.5C 575.833,71.5 627.167,71.5 678.5,71.5C 678.5,86.1667 678.5,100.833 678.5,115.5C 641.5,115.5 604.5,115.5 567.5,115.5C 567.5,135.5 567.5,155.5 567.5,175.5 Z"/></g>
<g><path style="opacity:1" fill="#f8b000" d="M 567.5,175.5 C 599.833,175.5 632.167,175.5 664.5,175.5C 664.5,190.167 664.5,204.833 664.5,219.5C 632.167,219.5 599.833,219.5 567.5,219.5C 566.502,248.329 566.169,277.329 566.5,306.5C 552.833,306.5 539.167,306.5 525.5,306.5C 525.5,228.5 525.5,150.5 525.5,72.5C 576.167,72.5 626.833,72.5 677.5,72.5C 677.5,86.5 677.5,100.5 677.5,114.5C 640.5,114.5 603.5,114.5 566.5,114.5C 566.17,135.007 566.503,155.34 567.5,175.5 Z"/></g>
<g><path style="opacity:1" fill="#ac7b08" d="M 365.5,71.5 C 366.167,110.5 366.833,149.5 367.5,188.5C 367.44,189.043 367.107,189.376 366.5,189.5C 365.5,150.172 365.167,110.839 365.5,71.5 Z"/></g>
<g><path style="opacity:1" fill="#d49603" d="M 691.5,263.5 C 655.337,264.498 619.004,264.832 582.5,264.5C 582.5,278.5 582.5,292.5 582.5,306.5C 582.167,306.5 581.833,306.5 581.5,306.5C 581.5,292.167 581.5,277.833 581.5,263.5C 618.167,263.5 654.833,263.5 691.5,263.5 Z"/></g>
<g><path style="opacity:1" fill="#af7d06" d="M 519.5,305.5 C 520.043,305.56 520.376,305.893 520.5,306.5C 502.338,307.827 484.338,307.827 466.5,306.5C 484.341,306.83 502.008,306.497 519.5,305.5 Z"/></g>
<g><path style="opacity:1" fill="#976d0a" d="M 734.5,0.5 C 735.499,102.665 735.833,204.999 735.5,307.5C 683.997,307.832 632.664,307.499 581.5,306.5C 581.833,306.5 582.167,306.5 582.5,306.5C 633.167,306.5 683.833,306.5 734.5,306.5C 734.5,204.5 734.5,102.5 734.5,0.5 Z"/></g>
<g><path style="opacity:1" fill="#818080" d="M 35.5,368.5 C 46.3404,367.176 57.3404,367.176 68.5,368.5C 68.3764,369.107 68.0431,369.44 67.5,369.5C 57.0131,368.506 46.3464,368.172 35.5,368.5 Z"/></g>
<g><path style="opacity:1" fill="#818080" d="M 607.5,368.5 C 618.34,367.176 629.34,367.176 640.5,368.5C 640.376,369.107 640.043,369.44 639.5,369.5C 629.013,368.506 618.346,368.172 607.5,368.5 Z"/></g>
<g><path style="opacity:1" fill="#fbfbfb" d="M 118.5,470.5 C 107.012,471.495 95.3453,471.828 83.5,471.5C 72.2769,456.745 61.2769,441.745 50.5,426.5C 45.0467,441.298 40.0467,456.298 35.5,471.5C 24.8541,472.499 14.1874,472.832 3.5,472.5C 13.5636,437.643 24.2302,402.976 35.5,368.5C 46.3464,368.172 57.0131,368.506 67.5,369.5C 62.8278,384.539 58.3278,399.539 54,414.5C 72.0201,398.979 90.1867,383.646 108.5,368.5C 120.82,367.334 133.153,367.167 145.5,368C 125.991,385.344 106.658,402.844 87.5,420.5C 97.8443,437.195 108.178,453.861 118.5,470.5 Z"/></g>
<g><path style="opacity:1" fill="#fcfcfc" d="M 191.5,471.5 C 167.476,472.157 143.81,471.49 120.5,469.5C 141.656,437.862 162.823,406.195 184,374.5C 189.994,368.004 197.494,365.67 206.5,367.5C 211.5,367.667 216.5,367.833 221.5,368C 224.453,370.063 226.286,372.896 227,376.5C 232.572,408.338 237.072,440.338 240.5,472.5C 230.5,472.5 220.5,472.5 210.5,472.5C 209.66,465.125 208.493,457.791 207,450.5C 202.742,458.246 197.575,465.246 191.5,471.5 Z"/></g>
<g><path style="opacity:1" fill="#fbfbfb" d="M 281.5,470.5 C 276.078,471.144 270.578,471.478 265,471.5C 259.454,471.495 254.288,470.828 249.5,469.5C 260.141,435.604 270.475,401.604 280.5,367.5C 306.502,367.333 332.502,367.5 358.5,368C 367.6,370.775 372.767,376.941 374,386.5C 378.511,407.26 371.011,421.427 351.5,429C 345.073,430.272 338.739,431.772 332.5,433.5C 342.978,446.479 353.645,459.313 364.5,472C 352.5,472.667 340.5,472.667 328.5,472C 316.988,459.655 305.321,447.489 293.5,435.5C 292.201,436.09 291.368,437.09 291,438.5C 287.523,449.096 284.356,459.762 281.5,470.5 Z"/></g>
<g><path style="opacity:1" fill="#fafafa" d="M 403.5,367.5 C 431.841,367.167 460.175,367.5 488.5,368.5C 483.861,377.971 477.861,386.471 470.5,394C 463.144,394.169 455.811,394.669 448.5,395.5C 440.091,421.058 432.091,446.725 424.5,472.5C 413.833,472.5 403.167,472.5 392.5,472.5C 400.167,446.5 407.833,420.5 415.5,394.5C 405.161,394.666 394.828,394.5 384.5,394C 390.239,384.667 396.573,375.834 403.5,367.5 Z"/></g>
<g><path style="opacity:1" fill="#fcfcfc" d="M 518.5,471.5 C 494.476,472.157 470.81,471.49 447.5,469.5C 468.656,437.862 489.823,406.195 511,374.5C 516.994,368.004 524.494,365.67 533.5,367.5C 545.781,363.756 552.948,368.089 555,380.5C 559.774,411.081 563.94,441.748 567.5,472.5C 557.5,472.5 547.5,472.5 537.5,472.5C 536.227,465.196 535.06,457.862 534,450.5C 529.742,458.246 524.575,465.246 518.5,471.5 Z"/></g>
<g><path style="opacity:1" fill="#fdfdfd" d="M 607.5,368.5 C 618.346,368.172 629.013,368.506 639.5,369.5C 631.434,394.698 623.768,420.032 616.5,445.5C 634.17,445.333 651.836,445.5 669.5,446C 663.732,455.26 657.066,463.76 649.5,471.5C 624.81,472.157 600.477,471.49 576.5,469.5C 586.631,435.774 596.964,402.107 607.5,368.5 Z"/></g>
<g><path style="opacity:1" fill="#fafafa" d="M 794.5,433.5 C 782.784,432.856 771.451,433.522 760.5,435.5C 756.37,447.687 752.703,460.02 749.5,472.5C 738.833,472.5 728.167,472.5 717.5,472.5C 727.625,437.499 738.292,402.666 749.5,368C 781.505,367.167 813.505,367.333 845.5,368.5C 840.726,378.237 834.393,386.737 826.5,394C 808.593,394.174 790.76,394.674 773,395.5C 769.69,405.081 767.024,414.748 765,424.5C 769.716,418.906 774.549,413.406 779.5,408C 792.5,407.333 805.5,407.333 818.5,408C 810.634,416.698 802.634,425.198 794.5,433.5 Z"/></g>
<g><path style="opacity:1" fill="#fbfbfb" d="M 919.5,468.5 C 919.5,469.5 919.5,470.5 919.5,471.5C 909.833,471.5 900.167,471.5 890.5,471.5C 889.549,464.832 888.049,458.166 886,451.5C 881.915,459.179 876.748,466.012 870.5,472C 846.836,472.5 823.169,472.667 799.5,472.5C 799.491,470.692 799.991,469.025 801,467.5C 821.581,437.339 841.915,407.006 862,376.5C 864.869,373.296 868.035,370.463 871.5,368C 881.5,367.333 891.5,367.333 901.5,368C 903.617,369.731 905.117,371.898 906,374.5C 908.407,382.68 910.074,391.013 911,399.5C 913.924,422.495 916.757,445.495 919.5,468.5 Z"/></g>
<g><path style="opacity:1" fill="#fbfbfb" d="M 960.5,367.5 C 986.502,367.333 1012.5,367.5 1038.5,368C 1048.1,371.327 1053.27,378.16 1054,388.5C 1057.17,409.995 1048.34,423.828 1027.5,430C 1022.21,431.209 1016.87,432.209 1011.5,433C 1022.36,445.687 1033.02,458.521 1043.5,471.5C 1031.5,472.833 1019.5,472.833 1007.5,471.5C 996.479,458.98 984.979,446.98 973,435.5C 972.055,435.905 971.388,436.572 971,437.5C 967.19,449.095 963.69,460.762 960.5,472.5C 949.833,472.5 939.167,472.5 928.5,472.5C 938.76,437.386 949.426,402.386 960.5,367.5 Z"/></g>
<g><path style="opacity:1" fill="#1d1b1b" d="M 304.5,394.5 C 316.833,394.5 329.167,394.5 341.5,394.5C 341.979,398.911 341.312,403.078 339.5,407C 329.5,407.333 319.5,407.667 309.5,408C 305.359,413.776 300.859,419.276 296,424.5C 298.504,414.494 301.338,404.494 304.5,394.5 Z"/></g>
<g><path style="opacity:1" fill="#1c1a1a" d="M 984.5,394.5 C 996.505,394.333 1008.5,394.5 1020.5,395C 1022.2,399.406 1021.53,403.406 1018.5,407C 1008.83,407.333 999.167,407.667 989.5,408C 984.622,413.209 980.122,418.709 976,424.5C 978.193,414.406 981.026,404.406 984.5,394.5 Z"/></g>
<g><path style="opacity:1" fill="#1d1b1b" d="M 206.5,442.5 C 206.5,443.5 206.5,444.5 206.5,445.5C 195.167,445.5 183.833,445.5 172.5,445.5C 181.479,430.218 190.979,415.218 201,400.5C 203.162,414.462 204.995,428.462 206.5,442.5 Z"/></g>
<g><path style="opacity:1" fill="#1d1b1b" d="M 533.5,443.5 C 522.549,445.478 511.216,446.144 499.5,445.5C 508.479,430.218 517.979,415.218 528,400.5C 530.244,414.785 532.077,429.119 533.5,443.5 Z"/></g>
<g><path style="opacity:1" fill="#1d1b1b" d="M 879.5,401.5 C 880.117,401.611 880.617,401.944 881,402.5C 883.244,416.788 885.078,431.121 886.5,445.5C 875.167,445.5 863.833,445.5 852.5,445.5C 860.97,430.571 869.97,415.905 879.5,401.5 Z"/></g>
<g><path style="opacity:1" fill="#535351" d="M 794.5,433.5 C 783.265,434.187 771.932,434.853 760.5,435.5C 771.451,433.522 782.784,432.856 794.5,433.5 Z"/></g>
<g><path style="opacity:1" fill="#c8c8c8" d="M 206.5,442.5 C 207.434,443.568 207.768,444.901 207.5,446.5C 195.655,446.828 183.988,446.495 172.5,445.5C 183.833,445.5 195.167,445.5 206.5,445.5C 206.5,444.5 206.5,443.5 206.5,442.5 Z"/></g>
<g><path style="opacity:1" fill="#cacaca" d="M 533.5,443.5 C 534.267,444.172 534.934,445.005 535.5,446C 523.326,446.826 511.326,446.66 499.5,445.5C 511.216,446.144 522.549,445.478 533.5,443.5 Z"/></g>
<g><path style="opacity:1" fill="#979796" d="M 120.5,469.5 C 143.81,471.49 167.476,472.157 191.5,471.5C 155.5,472.833 119.5,472.833 83.5,471.5C 95.3453,471.828 107.012,471.495 118.5,470.5C 119.167,470.167 119.833,469.833 120.5,469.5 Z"/></g>
<g><path style="opacity:1" fill="#979796" d="M 249.5,469.5 C 254.288,470.828 259.454,471.495 265,471.5C 270.578,471.478 276.078,471.144 281.5,470.5C 270.884,472.477 259.884,473.144 248.5,472.5C 248.263,471.209 248.596,470.209 249.5,469.5 Z"/></g>
<g><path style="opacity:1" fill="#989897" d="M 447.5,469.5 C 470.81,471.49 494.476,472.157 518.5,471.5C 494.672,472.498 470.672,472.831 446.5,472.5C 446.263,471.209 446.596,470.209 447.5,469.5 Z"/></g>
<g><path style="opacity:1" fill="#9a9a99" d="M 576.5,469.5 C 600.477,471.49 624.81,472.157 649.5,471.5C 625.006,472.498 600.339,472.831 575.5,472.5C 575.263,471.209 575.596,470.209 576.5,469.5 Z"/></g>
<g><path style="opacity:1" fill="#969695" d="M 919.5,468.5 C 920.434,469.568 920.768,470.901 920.5,472.5C 910.319,472.827 900.319,472.494 890.5,471.5C 900.167,471.5 909.833,471.5 919.5,471.5C 919.5,470.5 919.5,469.5 919.5,468.5 Z"/></g>
</svg>
